<?xml version="1.0" encoding="UTF-8"?>
<svg width="1200pt" height="1200pt" version="1.1" viewBox="0 0 1200 1200" xmlns="http://www.w3.org/2000/svg">
 <g>
  <path d="m533.2 1144.4c0 6.8008-5.6016 12.398-12.801 11.602-115.2-9.1992-205.6-106.8-204.4-223.6l1.1992-172c0-20.398-5.1992-40.398-15.199-58-10-17.602-24.398-32.398-42-43.199l-148-88c-100.8-60-136.8-187.6-85.199-290.8 2.8008-6 10.801-8.3984 16.801-4.8008l328 194.8c102.8 60.801 166 172.8 164.8 292.8z"/>
  <path d="m668.4 1158c-6.8008 0-12.398-5.1992-12.398-12l3.1992-381.6c1.1992-119.6 66-230 169.6-288.4l331.2-186.4c6-3.1992 13.602-0.80078 16.398 5.1992 50.398 104.4 11.602 231.2-90 288.8l-149.6 84.398c-36 20.398-58.398 58.398-58.398 99.602l-1.1992 172c-1.6016 117.6-93.602 212.4-208.8 218.4z"/>
  <path d="m1103.2 165.2c3.6016 5.6016 1.6016 13.602-4 16.801l-331.2 186.4c-103.6 58.398-231.6 56.801-334.4-4l-328-194.8c-6-3.6016-7.6016-11.199-3.6016-16.801 64.398-95.598 193.6-125.2 294.4-65.195l148 88c35.602 21.199 80 21.602 115.2 1.6016l150-84.398c102-57.605 230.4-24.406 293.6 72.395z"/>
 </g>
</svg>
